<?xml version="1.0" standalone="no"?>
<!DOCTYPE svg PUBLIC "-//W3C//DTD SVG 20010904//EN"
 "http://www.w3.org/TR/2001/REC-SVG-20010904/DTD/svg10.dtd">
<svg version="1.0" xmlns="http://www.w3.org/2000/svg"
 width="512.000000pt" height="512.000000pt" viewBox="0 0 512.000000 512.000000"
 preserveAspectRatio="xMidYMid meet">

<g transform="translate(0.000000,512.000000) scale(0.100000,-0.100000)"
fill="#000000" stroke="none">
<path d="M1985 5096 c-107 -51 -137 -110 -143 -288 l-4 -127 -92 -35 c-197
-77 -420 -207 -583 -339 l-81 -66 -108 62 c-101 58 -112 62 -178 65 -84 3
-142 -21 -187 -78 -52 -66 -523 -894 -533 -937 -6 -30 -6 -59 3 -97 17 -76 68
-130 183 -196 51 -29 95 -55 97 -56 2 -2 -5 -61 -15 -131 -25 -171 -25 -469 0
-636 10 -65 16 -120 15 -121 -2 -2 -46 -27 -97 -56 -115 -65 -166 -120 -183
-195 -9 -41 -9 -64 0 -101 12 -45 470 -855 528 -932 13 -18 47 -44 75 -58 44
-22 62 -25 118 -22 60 3 77 9 174 65 l106 62 83 -66 c167 -135 384 -261 583
-339 l92 -35 4 -127 c6 -178 36 -237 143 -288 l50 -24 525 0 525 0 50 24 c107
51 137 110 143 288 l4 127 92 35 c197 77 420 207 583 339 l81 66 108 -62 c97
-56 114 -62 174 -65 56 -3 74 0 118 22 28 14 62 40 75 58 58 77 516 887 528
932 9 37 9 60 0 101 -17 75 -68 130 -183 195 -51 29 -95 55 -97 56 -2 2 5 61
15 131 25 171 25 469 0 636 -10 65 -16 120 -15 121 2 2 46 27 97 56 115 66
166 120 183 196 9 38 9 67 3 97 -10 43 -481 871 -533 937 -45 57 -103 81 -187
78 -66 -3 -77 -7 -178 -65 l-107 -62 -82 66 c-167 135 -384 261 -583 339 l-92
35 -4 127 c-6 178 -36 237 -143 288 l-50 24 -525 0 -525 0 -50 -24z m1090
-136 c44 -17 55 -62 55 -223 0 -170 -5 -162 125 -207 243 -85 472 -221 707
-422 23 -19 49 -31 65 -31 16 0 82 31 153 71 139 80 172 87 210 47 36 -39 510
-866 510 -891 0 -37 -38 -69 -165 -143 -87 -50 -123 -76 -129 -95 -7 -18 -2
-67 15 -168 34 -202 34 -471 -1 -676 -17 -101 -21 -150 -14 -168 6 -19 43 -46
129 -96 128 -73 165 -106 165 -142 0 -24 -475 -853 -511 -892 -37 -39 -72 -32
-206 46 -67 38 -132 72 -145 75 -26 7 -46 -6 -162 -103 -165 -138 -418 -281
-621 -352 -130 -45 -125 -37 -125 -207 0 -161 -11 -206 -55 -223 -35 -13 -995
-13 -1030 0 -44 17 -55 62 -55 223 0 170 5 162 -125 207 -243 85 -472 221
-707 422 -23 19 -49 31 -65 31 -16 0 -82 -31 -153 -71 -139 -79 -172 -87 -209
-48 -36 39 -511 868 -511 892 0 37 38 69 165 143 87 50 123 76 129 95 7 18 2
67 -15 168 -34 202 -34 471 1 676 17 101 21 150 14 168 -6 19 -43 46 -129 96
-128 73 -165 106 -165 142 0 24 475 853 511 892 37 39 72 32 206 -46 67 -38
132 -72 145 -75 26 -7 46 6 162 103 165 138 418 281 621 352 130 45 125 37
125 207 0 157 11 206 52 223 32 12 999 13 1033 0z"/>
<path d="M3073 4370 c-28 -26 -31 -80 -5 -103 17 -16 123 -60 190 -79 63 -18
117 44 87 102 -11 22 -33 35 -97 60 -112 43 -147 47 -175 20z"/>
<path d="M3556 4139 c-20 -16 -26 -29 -26 -59 0 -38 4 -42 98 -113 100 -76
251 -223 319 -312 124 -160 233 -364 293 -549 35 -107 56 -136 98 -136 45 0
72 25 72 69 0 64 -84 288 -162 429 -127 233 -322 463 -517 611 -119 90 -131
95 -175 60z"/>
<path d="M2420 4069 c-383 -35 -751 -223 -1001 -513 -499 -576 -499 -1416 0
-1992 543 -628 1498 -695 2134 -149 632 543 699 1505 148 2141 -255 295 -617
478 -1016 514 -113 11 -145 10 -265 -1z m405 -170 c479 -95 870 -437 1028
-899 94 -276 94 -604 0 -880 -137 -399 -454 -716 -853 -853 -276 -94 -604 -94
-880 0 -399 137 -716 454 -853 853 -94 276 -94 604 0 880 222 648 887 1031
1558 899z"/>
<path d="M1975 2950 c-12 -4 -26 -14 -32 -22 -6 -7 -68 -165 -137 -350 -132
-351 -134 -362 -93 -397 9 -7 33 -11 54 -9 34 3 41 8 60 46 12 24 26 56 32 72
l10 30 170 0 170 0 22 -59 c25 -71 48 -94 90 -93 42 1 69 28 69 67 0 33 -226
646 -253 689 -22 33 -111 47 -162 26z m119 -323 c27 -72 51 -138 53 -144 4
-10 -21 -13 -106 -13 -61 0 -111 3 -111 7 0 14 104 283 109 283 3 0 28 -60 55
-133z"/>
<path d="M2544 2954 c-12 -3 -30 -14 -40 -26 -18 -19 -19 -43 -19 -368 0 -328
1 -349 19 -369 26 -28 86 -29 112 0 14 16 19 40 22 113 l4 93 127 5 c101 4
138 10 177 27 223 99 222 402 -1 502 -44 20 -68 23 -215 25 -91 1 -175 0 -186
-2z m325 -154 c65 -18 106 -81 93 -145 -2 -15 -20 -42 -39 -61 l-34 -34 -124
0 -125 0 0 125 0 125 98 0 c53 0 112 -4 131 -10z"/>
<path d="M3226 2928 c-14 -19 -16 -71 -16 -368 0 -391 0 -390 69 -390 26 0 44
7 57 21 18 20 19 41 19 369 0 328 -1 349 -19 369 -27 30 -89 29 -110 -1z"/>
<path d="M890 1730 c-35 -35 -26 -76 40 -178 73 -114 107 -131 163 -84 31 27
20 71 -39 170 -31 51 -65 97 -75 102 -29 16 -68 11 -89 -10z"/>
<path d="M1239 1300 c-29 -17 -43 -64 -27 -93 27 -51 207 -196 358 -289 226
-138 529 -240 786 -264 64 -6 73 -5 93 15 13 13 21 34 21 55 0 48 -33 72 -112
80 -324 36 -676 187 -923 395 -134 114 -156 125 -196 101z"/>
</g>
</svg>
