<?xml version="1.0" standalone="no"?>
<!DOCTYPE svg PUBLIC "-//W3C//DTD SVG 20010904//EN"
 "http://www.w3.org/TR/2001/REC-SVG-20010904/DTD/svg10.dtd">
<svg version="1.0" xmlns="http://www.w3.org/2000/svg"
 width="512.000000pt" height="512.000000pt" viewBox="0 0 512.000000 512.000000"
 preserveAspectRatio="xMidYMid meet">

<g transform="translate(0.000000,512.000000) scale(0.100000,-0.100000)"
fill="#000000" stroke="none">
<path d="M1462 4785 c-238 -52 -436 -253 -488 -496 -31 -146 -1 -323 78 -457
38 -64 151 -182 197 -206 l31 -17 0 -1049 0 -1049 -22 -12 c-81 -42 -195 -174
-242 -282 -30 -66 -56 -187 -56 -256 0 -88 28 -201 72 -290 103 -209 332 -351
568 -351 349 0 640 291 640 640 0 197 -102 399 -261 516 -48 35 -51 39 -45 72
8 50 50 109 103 142 92 59 220 97 582 175 465 101 662 178 860 339 195 157
317 389 350 666 7 52 13 95 14 96 196 123 317 335 317 554 0 349 -291 640
-640 640 -349 0 -640 -291 -640 -640 0 -214 121 -431 304 -545 14 -9 14 -17 1
-79 -45 -210 -188 -293 -690 -402 -247 -53 -417 -95 -499 -124 -33 -11 -63
-20 -68 -20 -4 0 -8 283 -8 628 l0 629 50 32 c114 74 224 240 255 387 96 453
-310 857 -763 759z m273 -336 c63 -30 123 -90 155 -154 35 -71 35 -197 0 -270
-31 -64 -91 -124 -155 -155 -73 -35 -199 -35 -270 0 -64 31 -124 91 -155 155
-35 71 -35 197 0 270 42 86 123 152 215 176 54 14 156 3 210 -22z m1920 -640
c63 -30 123 -90 155 -154 20 -41 25 -65 25 -135 -1 -77 -4 -91 -34 -148 -38
-70 -70 -101 -145 -140 -43 -22 -64 -26 -136 -26 -70 -1 -94 4 -135 24 -260
128 -238 495 35 594 63 23 170 16 235 -15z m-1920 -2560 c63 -30 123 -90 155
-154 20 -41 25 -65 25 -135 -1 -77 -4 -91 -34 -148 -38 -70 -70 -101 -145
-140 -43 -22 -64 -26 -136 -26 -70 -1 -94 4 -135 24 -260 128 -238 495 35 594
63 23 170 16 235 -15z"/>
</g>
</svg>
