<?xml version="1.0" standalone="no"?>
<!DOCTYPE svg PUBLIC "-//W3C//DTD SVG 20010904//EN"
 "http://www.w3.org/TR/2001/REC-SVG-20010904/DTD/svg10.dtd">
<svg version="1.0" xmlns="http://www.w3.org/2000/svg"
 width="512.000000pt" height="512.000000pt" viewBox="0 0 512.000000 512.000000"
 preserveAspectRatio="xMidYMid meet">

<g transform="translate(0.000000,512.000000) scale(0.100000,-0.100000)"
fill="#000000" stroke="none">
<path d="M334 5097 c-22 -19 -26 -31 -26 -71 1 -26 90 -1038 198 -2249 141
-1586 200 -2211 211 -2234 8 -17 25 -39 38 -47 40 -26 1712 -487 1785 -493 61
-4 118 11 915 232 468 130 858 238 868 241 35 11 86 65 92 97 8 46 395 4392
397 4451 1 42 -3 53 -26 73 l-27 23 -2199 0 -2199 0 -27 -23z m3579 -928 c60
-16 62 -26 38 -290 -12 -129 -21 -242 -21 -251 0 -17 -61 -18 -1059 -20 -1025
-3 -1060 -4 -1080 -22 -26 -24 -27 -59 -6 -281 20 -211 22 -223 52 -251 l26
-24 979 0 979 0 24 -25 c14 -13 25 -30 25 -37 -1 -7 -34 -379 -74 -826 -71
-791 -73 -813 -96 -837 -29 -31 -21 -28 -643 -200 l-499 -138 -536 148 c-296
81 -550 155 -567 164 -58 33 -62 49 -94 415 -39 427 -39 438 -5 465 25 20 39
21 240 21 117 0 224 -4 238 -10 46 -17 57 -49 72 -216 15 -164 27 -202 70
-231 24 -15 551 -163 582 -163 18 0 527 137 565 152 15 6 37 24 49 41 19 27
25 65 50 326 15 163 25 308 22 323 -11 55 36 53 -970 58 l-932 5 -26 24 c-14
13 -27 39 -30 60 -13 84 -137 1518 -134 1555 3 36 8 43 38 58 33 17 119 18
1360 18 899 0 1337 -4 1363 -11z"/>
</g>
</svg>
