<?xml version="1.0" standalone="no"?>
<!DOCTYPE svg PUBLIC "-//W3C//DTD SVG 20010904//EN"
 "http://www.w3.org/TR/2001/REC-SVG-20010904/DTD/svg10.dtd">
<svg version="1.0" xmlns="http://www.w3.org/2000/svg"
 width="512.000000pt" height="512.000000pt" viewBox="0 0 512.000000 512.000000"
 preserveAspectRatio="xMidYMid meet">

<g transform="translate(0.000000,512.000000) scale(0.100000,-0.100000)"
fill="#000000" stroke="none">
<path d="M3710 4369 c-449 -51 -775 -314 -882 -709 -20 -75 -23 -107 -22 -265
1 -161 4 -190 27 -279 49 -184 134 -324 278 -461 141 -134 315 -235 664 -385
456 -196 554 -265 600 -425 56 -191 -58 -361 -290 -431 -82 -25 -302 -26 -395
-1 -104 27 -237 98 -312 167 -58 52 -159 175 -194 235 -10 17 -33 6 -275 -134
-145 -85 -279 -162 -296 -173 l-33 -19 17 -32 c37 -74 129 -200 199 -276 320
-344 862 -505 1404 -415 261 44 466 137 622 283 186 174 281 384 295 652 13
255 -48 492 -171 664 -50 70 -159 178 -241 239 -144 108 -301 192 -610 326
-341 148 -418 191 -499 281 -53 59 -76 123 -76 214 0 222 200 354 461 305 119
-23 222 -97 305 -222 27 -40 49 -74 50 -76 2 -4 535 336 553 353 12 11 9 22
-19 67 -119 194 -298 353 -484 431 -189 79 -447 112 -676 86z"/>
<path d="M1457 3033 c-3 -1190 -5 -1314 -20 -1371 -45 -168 -132 -244 -295
-260 -103 -10 -191 1 -258 32 -74 34 -165 128 -235 243 l-56 92 -288 -174
c-159 -96 -292 -178 -296 -182 -13 -13 75 -161 148 -253 239 -298 626 -447
1064 -410 541 46 856 326 946 840 17 98 18 191 18 1425 l0 1320 -362 3 -362 2
-4 -1307z"/>
</g>
</svg>
