<?xml version="1.0" standalone="no"?>
<!DOCTYPE svg PUBLIC "-//W3C//DTD SVG 20010904//EN"
 "http://www.w3.org/TR/2001/REC-SVG-20010904/DTD/svg10.dtd">
<svg version="1.0" xmlns="http://www.w3.org/2000/svg"
 width="512.000000pt" height="512.000000pt" viewBox="0 0 512.000000 512.000000"
 preserveAspectRatio="xMidYMid meet">

<g transform="translate(0.000000,512.000000) scale(0.100000,-0.100000)"
fill="#000000" stroke="none">
<path d="M2275 5110 c-720 -60 -1208 -292 -1265 -601 -7 -37 -10 -409 -8
-1095 3 -968 4 -1042 21 -1084 105 -265 499 -451 1117 -526 202 -25 638 -25
840 0 618 75 1012 261 1117 526 17 42 18 116 21 1084 2 686 -1 1058 -8 1095
-54 293 -482 511 -1160 591 -129 15 -540 21 -675 10z m685 -236 c270 -30 499
-89 675 -174 279 -134 330 -272 150 -407 -238 -179 -687 -283 -1225 -283 -216
0 -362 11 -550 41 -446 70 -782 245 -782 405 0 133 275 292 647 373 309 68
732 85 1085 45z m-1690 -806 c320 -196 873 -301 1462 -276 454 19 865 121
1118 276 19 12 38 22 43 22 11 0 8 -290 -4 -334 -22 -79 -134 -170 -294 -239
-545 -235 -1525 -235 -2070 0 -160 69 -272 160 -294 239 -12 44 -15 334 -3
334 4 0 23 -10 42 -22z m13 -675 c129 -81 377 -168 608 -212 247 -48 341 -56
669 -56 328 0 422 8 669 56 231 44 479 131 608 212 24 15 47 27 53 27 14 0 13
-283 -1 -335 -32 -117 -268 -252 -578 -329 -235 -59 -430 -80 -751 -80 -321 0
-516 21 -751 80 -310 77 -546 212 -578 329 -14 52 -15 335 -1 335 6 0 29 -12
53 -27z m107 -724 c199 -93 438 -156 745 -195 198 -26 652 -26 850 0 369 47
656 133 863 256 l52 32 0 -154 c0 -84 -5 -170 -11 -192 -33 -120 -242 -244
-545 -321 -713 -183 -1750 -71 -2047 221 -68 67 -72 80 -75 273 l-4 174 54
-32 c29 -18 82 -46 118 -62z"/>
<path d="M185 1550 c-11 -4 -31 -20 -45 -35 l-25 -27 -3 -461 c-2 -310 0 -474
8 -499 23 -81 120 -106 179 -47 l31 30 2 302 3 301 67 -90 c82 -109 93 -121
138 -129 53 -9 90 18 169 124 l70 93 3 -302 3 -302 33 -29 c47 -43 102 -41
148 5 l34 34 0 479 c0 454 -1 480 -19 509 -26 42 -78 60 -127 44 -29 -10 -57
-42 -166 -186 -72 -96 -134 -171 -138 -167 -4 4 -62 82 -129 171 -138 184
-171 209 -236 182z"/>
<path d="M2468 1550 c-161 -27 -284 -113 -337 -234 -7 -16 -12 -58 -12 -92 0
-101 42 -177 130 -234 56 -35 163 -75 233 -85 l45 -7 8 49 8 48 8 -49 c9 -55
16 -62 74 -72 66 -10 144 -52 151 -80 15 -57 -71 -113 -186 -122 -130 -9 -235
38 -258 115 -14 48 -39 72 -85 83 -42 9 -87 -8 -111 -41 -40 -58 -4 -180 75
-256 179 -169 542 -165 705 9 62 66 84 118 84 198 0 173 -109 262 -398 326
-161 36 -214 54 -244 81 -64 58 52 144 196 145 128 0 211 -42 234 -121 22 -72
98 -102 162 -64 55 32 65 105 26 190 -73 155 -296 248 -508 213z"/>
<path d="M3493 1550 c-118 -25 -219 -120 -252 -240 -9 -32 -11 -126 -9 -330 3
-284 3 -285 29 -340 34 -71 89 -126 164 -161 59 -29 62 -29 241 -29 132 0 193
4 222 14 34 12 43 12 59 1 25 -20 94 -19 122 1 45 32 60 111 28 152 -6 8 -5
28 4 60 10 35 14 119 14 327 0 339 -4 355 -99 451 -86 86 -120 96 -321 100
-88 2 -179 -1 -202 -6z m354 -236 c45 -34 52 -70 52 -287 l1 -198 -33 25 c-46
35 -87 42 -129 22 -66 -32 -81 -109 -33 -171 l26 -35 -98 0 c-79 0 -104 4
-130 20 -50 30 -55 64 -51 337 3 240 3 242 27 267 36 38 71 45 213 43 111 -2
130 -5 155 -23z"/>
<path d="M4430 1553 c-92 -30 -90 -18 -90 -547 0 -490 1 -505 51 -540 20 -14
59 -16 285 -16 248 0 263 1 287 21 39 30 54 87 33 130 -28 60 -41 64 -248 67
l-188 4 0 404 c0 449 1 442 -67 470 -34 15 -39 15 -63 7z"/>
<path d="M1278 1093 c-15 -9 -32 -26 -38 -38 -25 -48 -15 -83 90 -294 l102
-207 -101 -202 c-118 -235 -123 -262 -67 -318 24 -24 43 -34 66 -34 74 0 75 2
326 503 175 349 234 476 234 503 0 53 -53 104 -108 104 -60 0 -86 -28 -159
-173 l-65 -131 -70 137 c-53 104 -77 141 -98 152 -38 19 -78 19 -112 -2z"/>
</g>
</svg>
